<svg data-name="Layer 1" xmlns="http://www.w3.org/2000/svg" width="1019.484" height="436.681"><path d="M223.77 243.614a9.75 9.75 0 10-19.407 1.282l-28.015 36.686a13.583 13.583 0 001.836 14.914l2.198 2.564 10.083-2.017 11.428-10.083-1.345-11.428 14.117-22.183-.018-.016a9.743 9.743 0 009.123-9.719z" fill="#ffb9b9"/><path fill="#ffb8b8" d="M30.041 422.968l-4.573-16.984L88.8 380.265l6.749 25.066-65.508 17.637z"/><path d="M14.744 431.732L0 376.97l.693-.187a22.075 22.075 0 0127.054 15.575v.002l9.005 33.447z" fill="#2f2e41"/><path fill="#ffb8b8" d="M117.278 420.254l-14.224-10.344 33.131-59.789 20.994 15.267-39.901 54.866z"/><path d="M110.879 436.681l-45.866-33.355.422-.58a22.075 22.075 0 0130.834-4.87h.002l28.013 20.373zM238.192 336.704l-35.795-34.772a18.076 18.076 0 00-23.668-1.323l-67.586 75.084 6.05 9.411 64.533-43.694 43.694 57.138 41.678-20.838z" fill="#2f2e41"/><path d="M222.731 344.099l-26.216-2.017-18.986-4.603a9.753 9.753 0 10-1.85 12.656l-.003.014 11.428 4.705 49.072 16.806 6.05-4.706z" fill="#ffb9b9"/><path fill="#2f2e41" d="M285.92 416.699l-14.789 9.411h-17.478l-81.338-30.25-118.983 21.511-3.361-25.545 108.9-47.727 95.455 31.594 31.594 41.006z"/><circle cx="254.326" cy="227.132" r="26.217" fill="#ffb9b9"/><path d="M322.16 331.804a150.631 150.631 0 01-7.388 46.591l-1.963 6.037-9.411 43.022-10.083 2.689-7.395-9.411-14.789-10.756-10.755-17.477-9.223-15.367-2.877-4.8-10.084-50.417-38.316-21.51-12.772-2.017 2.689-7.395 11.427-15.46 11.428-1.345 3.361-2.69 2.69 1.345 14.822 5.71 48.057-20.304 7.031 1.15 24.2 20.167a150.5 150.5 0 019.35 52.238z" fill="#ccc"/><path opacity=".1" style="isolation:isolate" d="M314.825 325.949l-25.544 16.805-38.128 34.377-2.877-4.799-8.067-40.333h2.017l20.839-38.316 51.76 32.266z"/><path fill="#ccc" d="M263.065 289.649l-20.839 38.316-12.1 13.445-10.755 2.689 28.905 31.594 41.005-36.972 25.544-16.806-51.76-32.266z"/><path d="M233.935 207.64l-2.84 1.092a3.965 3.965 0 01-1.061-5.507l.046-.067-5.249-.246a39.637 39.637 0 0159.174-4.769c.239-.823 2.844.778 3.907 2.402.358-1.34 2.8 5.135 3.665 9.712.4-1.524 1.937.936.59 3.297.854-.125 1.24 2.06.579 3.276.934-.439.776 2.169-.237 3.911 1.333-.118-.113 27.331-20.113 25.331-1.393-6.397-1-6-2.64-14.226-.763-.81-1.599-1.548-2.433-2.284l-4.513-3.984c-5.247-4.632-10.02-10.348-17.01-12.08-4.804-1.189-7.842-1.458-5.224-6.87-2.365.986-4.574 2.454-6.96 3.37.031-.756.365-1.602.319-2.359z" fill="#2f2e41"/><circle cx="267.434" cy="230.157" r="4.706" fill="#ffb9b9"/><path fill="#e6e6e6" style="isolation:isolate" d="M46.562 140.584l1.436-21.562 21.562 1.436-1.436 21.562z"/><path d="M34.086 130.472l26.182 1.744-1.743 26.182-26.183-1.743zm24.968 2.806l-23.906-1.592-1.592 23.906 23.906 1.592z" fill="#ccc"/><path fill="#e6e6e6" style="isolation:isolate" d="M148.722 59.624l21.128-4.54 4.54 21.128-21.128 4.54z"/><path d="M155.02 44.85l5.513 25.655-25.655 5.513-5.513-25.655zm4.158 24.78l-5.033-23.425-23.425 5.034 5.034 23.424z" fill="#ccc"/><path fill="#e6e6e6" style="isolation:isolate" d="M131.878 171.32l15.771-14.773 14.773 15.772-15.771 14.773z"/><path d="M163.557 154.337l-19.152 17.939-17.939-19.152 19.152-17.938zm-19.1 16.326l17.487-16.378-16.379-17.487-17.486 16.38z" fill="#ccc"/><path d="M963.277 0H323.894a17.598 17.598 0 00-17.598 17.598v356.253a17.599 17.599 0 0017.598 17.598h639.383a17.599 17.599 0 0017.599-17.598V17.598A17.599 17.599 0 00963.277 0z" fill="#3f3d56"/><path fill="#fff" d="M329.89 31.101h627.391v353.913H329.89z"/><circle cx="643.049" cy="15.014" r="6.435" fill="#fff"/><path fill="#f2f2f2" style="isolation:isolate" d="M777.858 385.015H329.89V31.102l447.968 353.913z"/><circle cx="428.058" cy="298.224" r="60.307" fill="#4286f4"/><path d="M441.483 343.55a75.016 75.016 0 1175.016-75.015 75.016 75.016 0 01-75.016 75.016zm0-149.05a74.035 74.035 0 1074.035 74.035 74.035 74.035 0 00-74.035-74.035zM753.437 214.97h58.605v12.246h-58.605zM697.991 148.627h169.497v5.248H697.991zM697.991 169.246h169.497v5.248H697.991zM697.991 189.866h169.497v5.248H697.991z" fill="#3f3d56"/><path fill="#4286f4" d="M888.401 52.282h24.492v24.492h-24.492z"/><path d="M924.264 88.145h-29.74v-29.74h29.74zm-28.447-1.293h27.154V59.698h-27.154z" fill="#ccc"/><path d="M998.491 378.58h-61.23v-4.412a.875.875 0 00-.874-.875h-20.993a.875.875 0 00-.874.875v4.412H901.4v-4.412a.875.875 0 00-.876-.875h-20.993a.875.875 0 00-.874.875v4.412h-13.12v-4.412a.875.875 0 00-.875-.875h-20.993a.875.875 0 00-.875.875v4.412h-13.12v-4.412a.875.875 0 00-.875-.875h-20.993a.875.875 0 00-.875.875v4.412h-13.12v-4.412a.875.875 0 00-.875-.875h-20.993a.875.875 0 00-.875.875v4.412h-13.12v-4.412a.875.875 0 00-.875-.875H736.08a.875.875 0 00-.875.875v4.412h-13.12v-4.412a.875.875 0 00-.875-.875H556.766a.875.875 0 00-.875.875v4.412h-13.12v-4.412a.875.875 0 00-.875-.875h-20.993a.875.875 0 00-.875.875v4.412h-13.12v-4.412a.875.875 0 00-.875-.875H485.04a.875.875 0 00-.875.875v4.412h-13.12v-4.412a.875.875 0 00-.875-.875h-20.993a.875.875 0 00-.875.875v4.412h-13.12v-4.412a.875.875 0 00-.875-.875h-20.993a.875.875 0 00-.875.875v4.412h-13.12v-4.412a.875.875 0 00-.875-.875h-20.993a.875.875 0 00-.875.875v4.412h-13.12v-4.412a.875.875 0 00-.875-.875h-20.993a.875.875 0 00-.874.875v4.412h-40.237a20.993 20.993 0 00-20.993 20.993v9.492a20.993 20.993 0 0020.993 20.993h698.014a20.993 20.993 0 0020.993-20.993v-9.492a20.993 20.993 0 00-20.993-20.993z" fill="#3f3d56"/></svg>